name D:\school\WTK\thesis\model\3dpredictsim\Results\MidTarsalJoint\Fal_s1_bCst_PF_Natali2010_ls150_MT_k500_MTP_T5_ig21.mot
datacolumns 128
datarows 4
range 0.00000000 0.03369846
endheader
time	pelvis_tilt	pelvis_list	pelvis_rotation	pelvis_tx	pelvis_ty	pelvis_tz	hip_flexion_l	hip_adduction_l	hip_rotation_l	hip_flexion_r	hip_adduction_r	hip_rotation_r	knee_angle_l	knee_angle_r	ankle_angle_l	ankle_angle_r	subtalar_angle_l	subtalar_angle_r	mtj_angle_l	mtj_angle_r	mtp_angle_l	mtp_angle_r	lumbar_extension	lumbar_bending	lumbar_rotation	arm_flex_l	arm_add_l	arm_rot_l	arm_flex_r	arm_add_r	arm_rot_r	elbow_flex_l	elbow_flex_r	pro_sup_l	pro_sup_r	glut_med1_l/activation	glut_med2_l/activation	glut_med3_l/activation	glut_min1_l/activation	glut_min2_l/activation	glut_min3_l/activation	semimem_l/activation	semiten_l/activation	bifemlh_l/activation	bifemsh_l/activation	sar_l/activation	add_long_l/activation	add_brev_l/activation	add_mag1_l/activation	add_mag2_l/activation	add_mag3_l/activation	tfl_l/activation	pect_l/activation	grac_l/activation	glut_max1_l/activation	glut_max2_l/activation	glut_max3_l/activation	iliacus_l/activation	psoas_l/activation	quad_fem_l/activation	gem_l/activation	peri_l/activation	rect_fem_l/activation	vas_med_l/activation	vas_int_l/activation	vas_lat_l/activation	med_gas_l/activation	lat_gas_l/activation	soleus_l/activation	tib_post_l/activation	flex_dig_l/activation	flex_hal_l/activation	tib_ant_l/activation	per_brev_l/activation	per_long_l/activation	per_tert_l/activation	ext_dig_l/activation	ext_hal_l/activation	ercspn_l/activation	intobl_l/activation	extobl_l/activation	glut_med1_r/activation	glut_med2_r/activation	glut_med3_r/activation	glut_min1_r/activation	glut_min2_r/activation	glut_min3_r/activation	semimem_r/activation	semiten_r/activation	bifemlh_r/activation	bifemsh_r/activation	sar_r/activation	add_long_r/activation	add_brev_r/activation	add_mag1_r/activation	add_mag2_r/activation	add_mag3_r/activation	tfl_r/activation	pect_r/activation	grac_r/activation	glut_max1_r/activation	glut_max2_r/activation	glut_max3_r/activation	iliacus_r/activation	psoas_r/activation	quad_fem_r/activation	gem_r/activation	peri_r/activation	rect_fem_r/activation	vas_med_r/activation	vas_int_r/activation	vas_lat_r/activation	med_gas_r/activation	lat_gas_r/activation	soleus_r/activation	tib_post_r/activation	flex_dig_r/activation	flex_hal_r/activation	tib_ant_r/activation	per_brev_r/activation	per_long_r/activation	per_tert_r/activation	ext_dig_r/activation	ext_hal_r/activation	ercspn_r/activation	intobl_r/activation	extobl_r/activation	
          0.00000000	         -2.92943749	         -2.11194753	          5.26741903	          0.00000000	          0.91865375	         -0.00204098	        -17.03529392	         -1.01869566	          6.48086401	         28.95465094	          3.66057482	         -1.98659945	         -8.01295432	        -11.29144625	         -1.23515663	          5.68351373	          7.98593883	         -5.45421362	          2.61466580	         -0.10275540	         16.96970410	          0.57782238	         -1.87645985	          0.40262066	         -1.98596254	          4.79632004	        -13.45689815	         16.32703689	         -5.55574399	        -13.45046702	          6.22812950	         34.38236311	         16.56719855	         86.51662706	         86.51662706	          0.28211783	          0.08830462	          0.06939849	          0.28099107	          0.17786880	          0.09932811	          0.05000292	          0.05000064	          0.05000078	          0.05350685	          0.09922530	          0.09559808	          0.08559743	          0.05007319	          0.05001227	          0.05002957	          0.28333698	          0.06181411	          0.05000545	          0.05000229	          0.05000178	          0.05000222	          0.35748014	          0.57921336	          0.05000078	          0.05003156	          0.05936073	          0.18741269	          0.05000572	          0.16260892	          0.13249978	          0.26173295	          0.35903948	          0.30439463	          0.27007377	          0.25332068	          0.33481682	          0.05000005	          0.05000044	          0.11281072	          0.05000023	          0.05000006	          0.05000028	          0.05000006	          0.07047414	          0.05000034	          0.05558344	          0.05000124	          0.05000030	          0.05936111	          0.05936060	          0.05000042	          0.19197155	          0.05000032	          0.05753658	          0.05000022	          0.05000073	          0.11792662	          0.22706957	          0.22383000	          0.16213725	          0.10488804	          0.05000029	          0.07046948	          0.08946284	          0.05000136	          0.05208470	          0.11859002	          0.06561086	          0.06058740	          0.54989257	          0.16651750	          0.14276330	          0.07417930	          0.18398812	          0.18333639	          0.15866600	          0.05000001	          0.05000004	          0.05000000	          0.05000013	          0.05000105	          0.05000086	          0.53429066	          0.25199219	          0.18906915	          0.23195210	          0.48120805	          0.07209482	          0.05000457	          0.11065250	          0.09683418	
          0.01123282	         -2.92524617	         -2.20889721	          5.53211730	          0.01703801	          0.91778909	         -0.00185033	        -16.92344465	         -1.32312708	          6.26331436	         28.28107937	          3.95979989	         -1.73875477	         -9.88965412	        -11.75763986	         -1.88332327	          5.03165740	          8.93042149	         -5.84875058	          1.96981788	         -0.23732241	         18.48383474	          0.56275219	         -1.66807505	          0.61676241	         -2.04628226	          4.49864745	        -13.46033344	         16.64222790	         -6.44108092	        -13.45174272	          6.01265553	         35.50741849	         16.21504220	         86.51662706	         86.51662706	          0.34340648	          0.07437975	          0.05845499	          0.23668136	          0.14982046	          0.08366495	          0.05000212	          0.05000081	          0.05000061	          0.05000018	          0.08357861	          0.13682763	          0.09398488	          0.05936222	          0.05936145	          0.05936083	          0.23865759	          0.07422205	          0.05008009	          0.05001308	          0.05001759	          0.05935491	          0.30110923	          0.56649560	          0.05580145	          0.05000123	          0.05000019	          0.15785933	          0.12459734	          0.13696783	          0.11160647	          0.22045986	          0.30242199	          0.25639415	          0.22748559	          0.21337448	          0.28201936	          0.05000002	          0.05000060	          0.14275461	          0.05000011	          0.05000002	          0.05000014	          0.05207035	          0.05936097	          0.05936074	          0.20509801	          0.05000013	          0.05000088	          0.05000043	          0.05000018	          0.19540171	          0.17782980	          0.07992584	          0.07248937	          0.05000063	          0.05000855	          0.09933068	          0.19126277	          0.18853410	          0.13656983	          0.11346655	          0.05000068	          0.05936202	          0.07536318	          0.05000064	          0.10106899	          0.09988956	          0.05936054	          0.05318527	          0.46317917	          0.14025918	          0.16134999	          0.06248186	          0.15497479	          0.15442583	          0.13364575	          0.05342530	          0.05639105	          0.05321890	          0.05000191	          0.05000144	          0.05000146	          0.45003815	          0.27453245	          0.15925497	          0.19537528	          0.53687769	          0.06072610	          0.05000001	          0.11909807	          0.08156425	
          0.02246564	         -2.91889002	         -2.30832060	          5.76327164	          0.03425506	          0.91698640	         -0.00165501	        -16.72625278	         -1.62635251	          6.04476343	         27.49844986	          4.20736109	         -1.48010623	        -11.89012599	        -12.21882207	         -2.70038421	          4.45403388	          9.83642822	         -6.24254775	          1.27562939	         -0.18664856	         19.96795053	          0.57390132	         -1.45290646	          0.84253581	         -2.09766903	          4.14087283	        -13.46506465	         16.89498599	         -7.32741198	        -13.45817026	          5.84852655	         36.60772904	         15.90357497	         86.51662706	         86.51662706	          0.29719120	          0.06265072	          0.05000012	          0.35238173	          0.12619513	          0.07047177	          0.05000264	          0.05000023	          0.05000020	          0.05000039	          0.07041358	          0.11525536	          0.07916441	          0.05000155	          0.05000165	          0.05000093	          0.24772365	          0.06251928	          0.05000067	          0.05000172	          0.05000101	          0.05000068	          0.25362706	          0.52981511	          0.05000012	          0.05000087	          0.05000048	          0.13443737	          0.10495057	          0.11561503	          0.14000395	          0.18569519	          0.25473259	          0.21596294	          0.19161308	          0.17972727	          0.23754741	          0.05000016	          0.08273975	          0.14753567	          0.05000048	          0.06299061	          0.05000048	          0.06062156	          0.05000025	          0.05000008	          0.29738088	          0.25505365	          0.25966348	          0.16429278	          0.20836235	          0.16458956	          0.14978756	          0.06732250	          0.06105848	          0.07242196	          0.05000186	          0.08366711	          0.16110228	          0.15880402	          0.11503421	          0.13486620	          0.05000083	          0.05000167	          0.06347939	          0.18732359	          0.15589059	          0.10694452	          0.05000012	          0.05000012	          0.39013976	          0.11814164	          0.13590676	          0.05262905	          0.13053842	          0.13843762	          0.11257300	          0.05000028	          0.05000100	          0.05000010	          0.05000011	          0.05000030	          0.05000041	          0.57414470	          0.34552236	          0.18736767	          0.45811471	          0.53599360	          0.22699265	          0.07085541	          0.10241115	          0.06870226	
          0.03369846	         -2.91073925	         -2.39636083	          5.95972736	          0.05146386	          0.91628176	         -0.00142604	        -16.41369562	         -1.91325726	          5.83846051	         26.71336230	          4.44928093	         -1.23196791	        -14.04010933	        -12.68913014	         -3.67866896	          3.91043380	         10.70329736	         -6.63873408	          0.52949412	         -0.20688669	         21.31869206	          0.56977600	         -1.24807734	          1.06333544	         -2.14116632	          3.76042979	        -13.47707190	         17.11369428	         -8.17515156	        -13.46287935	          5.73556529	         37.65407432	         15.61051284	         86.51662706	         86.51662706	          0.27370062	          0.05277127	          0.05000006	          0.29681471	          0.10629530	          0.05935904	          0.05000193	          0.05000023	          0.05000020	          0.05000015	          0.05931070	          0.15547497	          0.09773033	          0.05000296	          0.05000369	          0.05000711	          0.20866892	          0.05939537	          0.05000068	          0.05000175	          0.05000114	          0.05000085	          0.21363226	          0.48780779	          0.05000013	          0.05000043	          0.05000012	          0.11323776	          0.11792684	          0.11792677	          0.11792688	          0.15641262	          0.21456340	          0.18190740	          0.16139736	          0.15138593	          0.20008828	          0.09063670	          0.12396465	          0.13676890	          0.05000152	          0.13902789	          0.05000185	          0.08652743	          0.05000001	          0.05000005	          0.38086460	          0.34810345	          0.37597894	          0.18571977	          0.17550648	          0.23880786	          0.12616744	          0.08563247	          0.06984324	          0.06100206	          0.05000048	          0.07047369	          0.15602936	          0.19624410	          0.19301325	          0.16430045	          0.05000035	          0.05024431	          0.10911209	          0.24239372	          0.19463981	          0.15858660	          0.05000018	          0.05000016	          0.32861806	          0.09951185	          0.20397617	          0.05000007	          0.17454564	          0.18645107	          0.14592357	          0.05000004	          0.05000008	          0.05000001	          0.05000002	          0.05000025	          0.05000021	          0.62922656	          0.29103645	          0.15782139	          0.51199880	          0.58394642	          0.25589402	          0.08901302	          0.08626181	          0.05786851	
